<svg width="34" height="34" viewBox="0 0 34 34" fill="none" xmlns="http://www.w3.org/2000/svg">
<path d="M31.955 26.495C31.955 27.035 31.835 27.59 31.58 28.13C31.325 28.67 30.995 29.18 30.56 29.66C29.825 30.47 29.015 31.055 28.1 31.43C27.2 31.805 26.225 32 25.175 32C23.645 32 22.01 31.64 20.285 30.905C18.56 30.17 16.835 29.18 15.125 27.935C13.4 26.675 11.765 25.28 10.205 23.735C8.66 22.175 7.265 20.54 6.02 18.83C4.79 17.12 3.8 15.41 3.08 13.715C2.36 12.005 2 10.37 2 8.81C2 7.79 2.18 6.815 2.54 5.915C2.9 5 3.47 4.16 4.265 3.41C5.225 2.465 6.275 2 7.385 2C7.805 2 8.225 2.09 8.6 2.27C8.99 2.45 9.335 2.72 9.605 3.11L13.085 8.015C13.355 8.39 13.55 8.735 13.685 9.065C13.82 9.38 13.895 9.695 13.895 9.98C13.895 10.34 13.79 10.7 13.58 11.045C13.385 11.39 13.1 11.75 12.74 12.11L11.6 13.295C11.435 13.46 11.36 13.655 11.36 13.895C11.36 14.015 11.375 14.12 11.405 14.24C11.45 14.36 11.495 14.45 11.525 14.54C11.795 15.035 12.26 15.68 12.92 16.46C13.595 17.24 14.315 18.035 15.095 18.83C15.905 19.625 16.685 20.36 17.48 21.035C18.26 21.695 18.905 22.145 19.415 22.415C19.49 22.445 19.58 22.49 19.685 22.535C19.805 22.58 19.925 22.595 20.06 22.595C20.315 22.595 20.51 22.505 20.675 22.34L21.815 21.215C22.19 20.84 22.55 20.555 22.895 20.375C23.24 20.165 23.585 20.06 23.96 20.06C24.245 20.06 24.545 20.12 24.875 20.255C25.205 20.39 25.55 20.585 25.925 20.84L30.89 24.365C31.28 24.635 31.55 24.95 31.715 25.325C31.865 25.7 31.955 26.075 31.955 26.495Z" stroke="white" stroke-width="2.25" stroke-miterlimit="10"/>
</svg>
